<svg id="visual" viewBox="0 0 960 540" width="960" height="540" xmlns="http://www.w3.org/2000/svg" xmlns:xlink="http://www.w3.org/1999/xlink" version="1.1"><path d="M0 50L26.7 49C53.3 48 106.7 46 160 46C213.3 46 266.7 48 320 50.7C373.3 53.3 426.7 56.7 480 59.3C533.3 62 586.7 64 640 64C693.3 64 746.7 62 800 61C853.3 60 906.7 60 933.3 60L960 60L960 0L933.3 0C906.7 0 853.3 0 800 0C746.7 0 693.3 0 640 0C586.7 0 533.3 0 480 0C426.7 0 373.3 0 320 0C266.7 0 213.3 0 160 0C106.7 0 53.3 0 26.7 0L0 0Z" fill="#878dd2"></path><path d="M0 141L26.7 146.5C53.3 152 106.7 163 160 169.3C213.3 175.7 266.7 177.3 320 176.3C373.3 175.3 426.7 171.7 480 174.3C533.3 177 586.7 186 640 184.3C693.3 182.7 746.7 170.3 800 165.8C853.3 161.3 906.7 164.7 933.3 166.3L960 168L960 58L933.3 58C906.7 58 853.3 58 800 59C746.7 60 693.3 62 640 62C586.7 62 533.3 60 480 57.3C426.7 54.7 373.3 51.3 320 48.7C266.7 46 213.3 44 160 44C106.7 44 53.3 46 26.7 47L0 48Z" fill="#7a81cd"></path><path d="M0 174L26.7 178.5C53.3 183 106.7 192 160 197.3C213.3 202.7 266.7 204.3 320 204.3C373.3 204.3 426.7 202.7 480 205.3C533.3 208 586.7 215 640 213.2C693.3 211.3 746.7 200.7 800 196.2C853.3 191.7 906.7 193.3 933.3 194.2L960 195L960 166L933.3 164.3C906.7 162.7 853.3 159.3 800 163.8C746.7 168.3 693.3 180.7 640 182.3C586.7 184 533.3 175 480 172.3C426.7 169.7 373.3 173.3 320 174.3C266.7 175.3 213.3 173.7 160 167.3C106.7 161 53.3 150 26.7 144.5L0 139Z" fill="#6d75c7"></path><path d="M0 314L26.7 313.2C53.3 312.3 106.7 310.7 160 311.7C213.3 312.7 266.7 316.3 320 319.8C373.3 323.3 426.7 326.7 480 327.5C533.3 328.3 586.7 326.7 640 325.8C693.3 325 746.7 325 800 325.8C853.3 326.7 906.7 328.3 933.3 329.2L960 330L960 193L933.3 192.2C906.7 191.3 853.3 189.7 800 194.2C746.7 198.7 693.3 209.3 640 211.2C586.7 213 533.3 206 480 203.3C426.7 200.7 373.3 202.3 320 202.3C266.7 202.3 213.3 200.7 160 195.3C106.7 190 53.3 181 26.7 176.5L0 172Z" fill="#5f6ac2"></path><path d="M0 352L26.7 351.2C53.3 350.3 106.7 348.7 160 349.5C213.3 350.3 266.7 353.7 320 355.3C373.3 357 426.7 357 480 358C533.3 359 586.7 361 640 362C693.3 363 746.7 363 800 363C853.3 363 906.7 363 933.3 363L960 363L960 328L933.3 327.2C906.7 326.3 853.3 324.7 800 323.8C746.7 323 693.3 323 640 323.8C586.7 324.7 533.3 326.3 480 325.5C426.7 324.7 373.3 321.3 320 317.8C266.7 314.3 213.3 310.7 160 309.7C106.7 308.7 53.3 310.3 26.7 311.2L0 312Z" fill="#515ebc"></path><path d="M0 384L26.7 382.3C53.3 380.7 106.7 377.3 160 377.3C213.3 377.3 266.7 380.7 320 384.2C373.3 387.7 426.7 391.3 480 394.2C533.3 397 586.7 399 640 400C693.3 401 746.7 401 800 399.2C853.3 397.3 906.7 393.7 933.3 391.8L960 390L960 361L933.3 361C906.7 361 853.3 361 800 361C746.7 361 693.3 361 640 360C586.7 359 533.3 357 480 356C426.7 355 373.3 355 320 353.3C266.7 351.7 213.3 348.3 160 347.5C106.7 346.7 53.3 348.3 26.7 349.2L0 350Z" fill="#4b57af"></path><path d="M0 428L26.7 426.2C53.3 424.3 106.7 420.7 160 418.8C213.3 417 266.7 417 320 418.8C373.3 420.7 426.7 424.3 480 427.8C533.3 431.3 586.7 434.7 640 437.3C693.3 440 746.7 442 800 440.3C853.3 438.7 906.7 433.3 933.3 430.7L960 428L960 388L933.3 389.8C906.7 391.7 853.3 395.3 800 397.2C746.7 399 693.3 399 640 398C586.7 397 533.3 395 480 392.2C426.7 389.3 373.3 385.7 320 382.2C266.7 378.7 213.3 375.3 160 375.3C106.7 375.3 53.3 378.7 26.7 380.3L0 382Z" fill="#4651a3"></path><path d="M0 471L26.7 471C53.3 471 106.7 471 160 469.2C213.3 467.3 266.7 463.7 320 463.7C373.3 463.7 426.7 467.3 480 471C533.3 474.7 586.7 478.3 640 480.2C693.3 482 746.7 482 800 482C853.3 482 906.7 482 933.3 482L960 482L960 426L933.3 428.7C906.7 431.3 853.3 436.7 800 438.3C746.7 440 693.3 438 640 435.3C586.7 432.7 533.3 429.3 480 425.8C426.7 422.3 373.3 418.7 320 416.8C266.7 415 213.3 415 160 416.8C106.7 418.7 53.3 422.3 26.7 424.2L0 426Z" fill="#404a96"></path><path d="M0 541L26.7 541C53.3 541 106.7 541 160 541C213.3 541 266.7 541 320 541C373.3 541 426.7 541 480 541C533.3 541 586.7 541 640 541C693.3 541 746.7 541 800 541C853.3 541 906.7 541 933.3 541L960 541L960 480L933.3 480C906.7 480 853.3 480 800 480C746.7 480 693.3 480 640 478.2C586.7 476.3 533.3 472.7 480 469C426.7 465.3 373.3 461.7 320 461.7C266.7 461.7 213.3 465.3 160 467.2C106.7 469 53.3 469 26.7 469L0 469Z" fill="#3b448a"></path></svg>